<svg width="75" height="37" viewBox="0 0 75 37" fill="none" xmlns="http://www.w3.org/2000/svg">
<path fill-rule="evenodd" clip-rule="evenodd" d="M28.2224 0.513916C27.6701 0.513916 27.2224 0.961631 27.2224 1.51392V3.95601C27.2224 4.50829 27.6701 4.95601 28.2224 4.95601H55.789C63.5392 4.95601 69.626 10.4753 69.626 17.6201C69.626 17.8223 69.7899 17.9861 69.9921 17.9861H74.0786C74.2808 17.9861 74.4446 17.8223 74.4446 17.6201C74.4446 8.07095 66.1472 0.513916 55.789 0.513916H28.2224Z" fill="#6B7B84" stroke="#80949F" stroke-width="0.5"/>
<path fill-rule="evenodd" clip-rule="evenodd" d="M5.43889 18.2964C5.43889 18.125 5.29998 17.9861 5.12862 17.9861H0.865933C0.694576 17.9861 0.555664 18.125 0.555664 18.2964C0.555664 27.9589 8.37957 35.9366 18.4965 36.4587L50.666 36.4853C51.2186 36.4857 51.6668 36.0379 51.6668 35.4853V32.8277C51.6668 32.2754 51.2191 31.8277 50.6668 31.8277H19.6121C11.7783 31.8076 5.43889 25.7795 5.43889 18.2964Z" fill="#6B7B84" stroke="#80949F" stroke-width="0.5"/>
<path fill-rule="evenodd" clip-rule="evenodd" d="M21.5369 28.2638C23.633 28.2638 25.3789 27.8871 27.1033 27.1121L27.2224 27.0091V21.463L26.5771 22.2271C25.3354 23.4822 23.6679 24.173 21.7813 24.173C18.2673 24.173 14.738 22.0721 14.738 18.0568C14.738 15.0224 17.1721 11.7976 21.6577 11.7976C22.5528 11.7976 24.7294 11.9933 26.5739 13.8052L27.2224 14.5441V9.02311L27.1086 8.91873C25.3515 8.10422 23.5595 7.70825 21.5157 7.70825C18.0205 7.70825 15.2925 8.5594 13.1204 10.3088C11.7426 11.4052 9.44458 13.8622 9.44458 17.999C9.44458 21.0578 10.622 23.4466 13.138 25.5185C15.4785 27.417 18.0738 28.2638 21.5369 28.2638Z" fill="#6B7B84"/>
<path d="M21.5369 28.2638C23.633 28.2638 25.3789 27.8871 27.1033 27.1121L27.2224 27.0091V21.463L26.5771 22.2271C25.3354 23.4822 23.6679 24.173 21.7813 24.173C18.2673 24.173 14.738 22.072 14.738 18.0568C14.738 15.0224 17.1721 11.7976 21.6577 11.7976C22.5528 11.7976 24.7294 11.9933 26.5739 13.8052L27.2224 14.5441V9.02311L27.1086 8.91873C25.3515 8.10422 23.5595 7.70825 21.5157 7.70825C18.0205 7.70825 15.2925 8.5594 13.1204 10.3088C11.7426 11.4052 9.44458 13.8622 9.44458 17.999C9.44458 21.0578 10.622 23.4466 13.138 25.5185C15.4785 27.417 18.0738 28.2638 21.5369 28.2638" stroke="#80949F" stroke-width="0.5"/>
<path fill-rule="evenodd" clip-rule="evenodd" d="M36.6667 12.3333H37.7109C38.6686 12.3333 39.7602 12.3816 40.5864 12.9025C40.9898 13.1691 41.6667 13.7862 41.6667 14.907C41.6667 15.7353 41.271 16.478 40.6174 16.9414C39.7794 17.5041 38.7833 17.4718 37.9829 17.4718H36.6667V12.3333ZM39.0129 21.2027C41.486 21.2027 43.4217 20.5429 44.766 19.2999C46.4196 17.7734 46.6667 15.6736 46.6667 14.5666C46.6667 13.3821 46.3632 11.0717 44.3274 9.39883C42.6587 8.04624 40.8782 7.70825 38.3666 7.70825H31.6667V28.2638H36.7626V21.2027H39.0129Z" fill="#6B7B84"/>
<path d="M36.6667 12.3333V12.0833H36.4167V12.3333H36.6667ZM40.5864 12.9025L40.7243 12.6939L40.7198 12.691L40.5864 12.9025ZM40.6174 16.9414L40.7568 17.149L40.762 17.1453L40.6174 16.9414ZM36.6667 17.4718H36.4167V17.7218H36.6667V17.4718ZM44.766 19.2999L44.5964 19.1162L44.5963 19.1163L44.766 19.2999ZM44.3274 9.39883L44.4861 9.20567L44.4848 9.20462L44.3274 9.39883ZM31.6667 7.70825V7.45825H31.4167V7.70825H31.6667ZM31.6667 28.2638H31.4167V28.5138H31.6667V28.2638ZM36.7626 28.2638V28.5138H37.0126V28.2638H36.7626ZM36.7626 21.2027V20.9527H36.5126V21.2027H36.7626ZM36.6667 12.5833H37.7109V12.0833H36.6667V12.5833ZM37.7109 12.5833C38.675 12.5833 39.6958 12.6365 40.4531 13.114L40.7198 12.691C39.8247 12.1267 38.6623 12.0833 37.7109 12.0833V12.5833ZM40.4486 13.1111C40.8153 13.3534 41.4167 13.9035 41.4167 14.907H41.9167C41.9167 13.6689 41.1643 12.9847 40.7242 12.6939L40.4486 13.1111ZM41.4167 14.907C41.4167 15.6532 41.0612 16.3203 40.4728 16.7375L40.762 17.1453C41.4809 16.6356 41.9167 15.8174 41.9167 14.907H41.4167ZM40.4781 16.7338C39.7151 17.2461 38.8034 17.2218 37.9829 17.2218V17.7218C38.7632 17.7218 39.8437 17.762 40.7568 17.149L40.4781 16.7338ZM37.9829 17.2218H36.6667V17.7218H37.9829V17.2218ZM36.9167 17.4718V12.3333H36.4167V17.4718H36.9167ZM39.0129 21.4527C41.5293 21.4527 43.5326 20.7809 44.9357 19.4834L44.5963 19.1163C43.3108 20.305 41.4426 20.9527 39.0129 20.9527V21.4527ZM44.9356 19.4836C46.6657 17.8864 46.9167 15.6993 46.9167 14.5666H46.4167C46.4167 15.648 46.1735 17.6604 44.5964 19.1162L44.9356 19.4836ZM46.9167 14.5666C46.9167 13.3487 46.6055 10.9472 44.4861 9.20567L44.1687 9.59198C46.1209 11.1961 46.4167 13.4154 46.4167 14.5666H46.9167ZM44.4848 9.20462C42.7512 7.79942 40.9022 7.45825 38.3666 7.45825V7.95825C40.8542 7.95825 42.5662 8.29306 44.17 9.59304L44.4848 9.20462ZM38.3666 7.45825H31.6667V7.95825H38.3666V7.45825ZM31.4167 7.70825V28.2638H31.9167V7.70825H31.4167ZM31.6667 28.5138H36.7626V28.0138H31.6667V28.5138ZM37.0126 28.2638V21.2027H36.5126V28.2638H37.0126ZM36.7626 21.4527H39.0129V20.9527H36.7626V21.4527Z" fill="#80949F"/>
<path fill-rule="evenodd" clip-rule="evenodd" d="M61.9538 17.416C60.8459 16.508 59.2994 15.9817 57.5442 15.4357C56.2936 15.0332 55.6045 14.8114 55.1451 14.424C54.7825 14.1393 54.6208 13.8302 54.6208 13.4217C54.6208 12.5268 55.2781 11.5706 57.1235 11.5706C58.3776 11.5706 59.4277 12.0666 60.2447 13.0442L60.569 13.4324L63.26 10.2639L63.0147 10.0366C61.3689 8.51319 59.2001 7.70825 56.7428 7.70825C51.7849 7.70825 49.5656 10.6918 49.5656 13.6486C49.5656 15.2353 50.1774 16.5151 51.3801 17.4505C52.4569 18.3042 53.7701 18.7826 55.0297 19.173L55.172 19.2167C56.2906 19.5587 57.4474 19.9126 58.1383 20.4846C58.619 20.8931 58.8332 21.3371 58.8332 21.924C58.8332 23.2691 57.6881 24.173 55.9837 24.173C54.6365 24.173 52.8624 23.5622 51.9238 21.8482L51.6783 21.3991L48.3335 24.2632L48.5308 24.5213C49.5979 25.919 52.006 28.2638 56.1424 28.2638C60.7034 28.2638 63.8891 25.5514 63.8891 21.668C63.8891 19.4468 62.8355 18.1285 61.9538 17.416Z" fill="#6B7B84"/>
<path d="M61.9538 17.416C60.8459 16.508 59.2994 15.9817 57.5442 15.4357C56.2936 15.0332 55.6045 14.8114 55.1451 14.424C54.7825 14.1393 54.6208 13.8302 54.6208 13.4217C54.6208 12.5268 55.2781 11.5706 57.1235 11.5706C58.3776 11.5706 59.4277 12.0666 60.2447 13.0442L60.569 13.4324L63.26 10.2639L63.0147 10.0366C61.3689 8.51319 59.2001 7.70825 56.7428 7.70825C51.7849 7.70825 49.5656 10.6918 49.5656 13.6486C49.5656 15.2353 50.1774 16.5151 51.3801 17.4505C52.4569 18.3042 53.7701 18.7826 55.0297 19.173L55.172 19.2167C56.2906 19.5587 57.4474 19.9126 58.1383 20.4846C58.619 20.8931 58.8332 21.3371 58.8332 21.924C58.8332 23.2691 57.6881 24.173 55.9837 24.173C54.6365 24.173 52.8624 23.5622 51.9238 21.8482L51.6783 21.3991L48.3335 24.2632L48.5308 24.5213C49.5979 25.919 52.006 28.2638 56.1424 28.2638C60.7034 28.2638 63.8891 25.5514 63.8891 21.668C63.8891 19.4468 62.8355 18.1285 61.9538 17.416" stroke="#80949F" stroke-width="0.5"/>
</svg>
