<svg width="38" height="38" viewBox="0 0 38 38" fill="none" xmlns="http://www.w3.org/2000/svg">
<rect width="38" height="38" rx="19" fill="#FF3E79"/>
<path fill-rule="evenodd" clip-rule="evenodd" d="M22.3258 20.9005H21.5753L21.3093 20.644C22.4493 19.314 23.0383 17.4995 22.7153 15.571C22.2688 12.93 20.0648 10.821 17.4048 10.498C13.3863 10.004 10.0043 13.386 10.4983 17.4045C10.8213 20.0645 12.9303 22.2685 15.5713 22.715C17.4998 23.038 19.3143 22.449 20.6443 21.309L20.9008 21.575V22.3255L24.9478 26.363C25.3373 26.7525 25.9643 26.7525 26.3538 26.363L26.3633 26.3535C26.7528 25.964 26.7528 25.337 26.3633 24.9475L22.3258 20.9005ZM16.6257 20.9006C14.2602 20.9006 12.3507 18.9911 12.3507 16.6256C12.3507 14.2601 14.2602 12.3506 16.6257 12.3506C18.9912 12.3506 20.9007 14.2601 20.9007 16.6256C20.9007 18.9911 18.9912 20.9006 16.6257 20.9006Z" fill="white"/>
</svg>
