<svg width="16" height="20" viewBox="0 0 16 20" fill="none" xmlns="http://www.w3.org/2000/svg">
<path fill-rule="evenodd" clip-rule="evenodd" d="M5.24582e-05 1.00011C5.24582e-05 0.447822 0.447768 0.000107025 1.00005 0.000107025H15.0001C15.5523 0.000107025 16.0001 0.447823 16.0001 1.00011V18.5001C15.1717 18.5001 14.5001 19.1716 14.5001 20H13.5001C13.5 19.1716 12.8284 18.5001 12.0001 18.5001C11.1717 18.5001 10.5001 19.1716 10.5001 20H9.50005C9.49999 19.1716 8.82844 18.5001 8.00005 18.5001C7.17166 18.5001 6.50011 19.1716 6.50005 20H5.50005C5.49999 19.1716 4.82844 18.5001 4.00005 18.5001C3.17166 18.5001 2.50011 19.1716 2.50005 20H1.50005C1.49999 19.1716 0.828444 18.5001 5.24521e-05 18.5001L5.24582e-05 1.00011ZM9.4164 11.7885C8.55366 12.3445 7.47044 12.5937 6.3297 12.3828C4.52753 12.0473 3.08963 10.5328 2.85956 8.71152C2.49529 5.82623 4.94931 3.42022 7.85388 3.88034C9.65605 4.16791 11.1035 5.6441 11.4007 7.43663C11.5828 8.54857 11.324 9.57424 10.7872 10.4274L12.8961 12.5266C13.27 12.9005 13.27 13.514 12.8961 13.8878C12.5127 14.2712 11.8992 14.2712 11.5253 13.8974L9.4164 11.7885ZM4.70594 8.05893C4.70594 6.76011 5.76005 5.70599 7.05888 5.70599C8.3577 5.70599 9.41182 6.76011 9.41182 8.05893C9.41182 9.35775 8.3577 10.4119 7.05888 10.4119C5.76005 10.4119 4.70594 9.35775 4.70594 8.05893Z" fill="white"/>
</svg>
