<svg width="24" height="24" viewBox="0 0 24 24" fill="none" xmlns="http://www.w3.org/2000/svg">
<path fill-rule="evenodd" clip-rule="evenodd" d="M7.28445 16.6469C6.89806 16.2571 6.89806 15.6287 7.28445 15.2389L10.495 12L7.28445 8.76109C6.89806 8.37129 6.89806 7.7429 7.28445 7.3531L7.33369 7.30343C7.72491 6.90875 8.36288 6.90875 8.7541 7.30343L12 10.578L15.2459 7.30343C15.6371 6.90875 16.2751 6.90875 16.6663 7.30343L16.7156 7.3531C17.1019 7.7429 17.1019 8.37129 16.7156 8.76109L13.505 12L16.7156 15.2389C17.1019 15.6287 17.1019 16.2571 16.7156 16.6469L16.6663 16.6966C16.2751 17.0913 15.6371 17.0913 15.2459 16.6966L12 13.422L8.7541 16.6966C8.36288 17.0913 7.72491 17.0913 7.33369 16.6966L7.28445 16.6469Z" fill="#FF3E79"/>
</svg>
